<svg viewBox="0 0 660 400" xmlns="http://www.w3.org/2000/svg"
     style="font-family:-apple-system,system-ui,sans-serif;background:white;">
  <text x="330" y="22" text-anchor="middle" font-size="13" font-weight="600" fill="#222">
    Key PD Genes: Substantia Nigra vs VTA Expression
  </text>
  <text x="330" y="38" text-anchor="middle" font-size="10" fill="#666">
    Raw ISH expression energy · VGLUT2 enriched in VTA captures dopamine–glutamate corelease specificity
  </text>
  <rect x="55" y="58" width="12" height="10" fill="#555" opacity="0.9" rx="2"/><text x="71" y="67" font-size="10" fill="#333">Substantia nigra</text><rect x="185" y="58" width="12" height="10" fill="#555" opacity="0.45" stroke="#555" stroke-width="1.5" rx="2"/><text x="201" y="67" font-size="10" fill="#333">VTA</text>
  <line x1="55" y1="80" x2="55" y2="320" stroke="#aaa" stroke-width="1.5"/>
  <line x1="55" y1="320" x2="630" y2="320" stroke="#aaa" stroke-width="1.5"/>
  <line x1="51" y1="320.0" x2="630" y2="320.0" stroke="#eee" stroke-width="1"/><text x="48" y="323.0" text-anchor="end" font-size="9" fill="#666">0</text><line x1="51" y1="289.5" x2="630" y2="289.5" stroke="#eee" stroke-width="1"/><text x="48" y="292.5" text-anchor="end" font-size="9" fill="#666">1</text><line x1="51" y1="259.0" x2="630" y2="259.0" stroke="#eee" stroke-width="1"/><text x="48" y="262.0" text-anchor="end" font-size="9" fill="#666">2</text><line x1="51" y1="228.5" x2="630" y2="228.5" stroke="#eee" stroke-width="1"/><text x="48" y="231.5" text-anchor="end" font-size="9" fill="#666">3</text><line x1="51" y1="198.1" x2="630" y2="198.1" stroke="#eee" stroke-width="1"/><text x="48" y="201.1" text-anchor="end" font-size="9" fill="#666">4</text><line x1="51" y1="167.6" x2="630" y2="167.6" stroke="#eee" stroke-width="1"/><text x="48" y="170.6" text-anchor="end" font-size="9" fill="#666">5</text><line x1="51" y1="137.1" x2="630" y2="137.1" stroke="#eee" stroke-width="1"/><text x="48" y="140.1" text-anchor="end" font-size="9" fill="#666">6</text><line x1="51" y1="106.6" x2="630" y2="106.6" stroke="#eee" stroke-width="1"/><text x="48" y="109.6" text-anchor="end" font-size="9" fill="#666">7</text>
  <rect x="64.6" y="249.2" width="30.7" height="70.8" fill="#c0392b" opacity="0.9" rx="2"/><rect x="99.1" y="298.4" width="30.7" height="21.6" fill="#c0392b" opacity="0.45" rx="2" stroke="#c0392b" stroke-width="1.5"/><text x="79.9" y="245.2" text-anchor="middle" font-size="9" fill="#c0392b">2.32</text><text x="114.4" y="294.4" text-anchor="middle" font-size="9" fill="#c0392b">0.71</text><text x="97.2" y="334" text-anchor="middle" font-size="10" fill="#c0392b" font-weight="600" font-family="ui-monospace,Menlo,monospace">Th</text><text x="97.2" y="347" text-anchor="middle" font-size="10" fill="#c0392b" font-weight="600" font-family="ui-monospace,Menlo,monospace">(TH)</text><rect x="160.4" y="318.3" width="30.7" height="1.7" fill="#e67e22" opacity="0.9" rx="2"/><rect x="194.9" y="318.8" width="30.7" height="1.2" fill="#e67e22" opacity="0.45" rx="2" stroke="#e67e22" stroke-width="1.5"/><text x="175.8" y="314.3" text-anchor="middle" font-size="9" fill="#e67e22">0.06</text><text x="210.2" y="314.8" text-anchor="middle" font-size="9" fill="#e67e22">0.04</text><text x="193.0" y="334" text-anchor="middle" font-size="10" fill="#e67e22" font-weight="600" font-family="ui-monospace,Menlo,monospace">Gba</text><text x="193.0" y="347" text-anchor="middle" font-size="10" fill="#e67e22" font-weight="600" font-family="ui-monospace,Menlo,monospace">(GBA)</text><rect x="256.2" y="105.7" width="30.7" height="214.3" fill="#2980b9" opacity="0.9" rx="2"/><rect x="290.8" y="228.7" width="30.7" height="91.3" fill="#2980b9" opacity="0.45" rx="2" stroke="#2980b9" stroke-width="1.5"/><text x="271.6" y="101.7" text-anchor="middle" font-size="9" fill="#2980b9">7.03</text><text x="306.1" y="224.7" text-anchor="middle" font-size="9" fill="#2980b9">2.99</text><text x="288.8" y="334" text-anchor="middle" font-size="10" fill="#2980b9" font-weight="600" font-family="ui-monospace,Menlo,monospace">Slc18a2</text><text x="288.8" y="347" text-anchor="middle" font-size="10" fill="#2980b9" font-weight="600" font-family="ui-monospace,Menlo,monospace">(VMAT2)</text><rect x="352.1" y="285.0" width="30.7" height="35.0" fill="#16a085" opacity="0.9" rx="2"/><rect x="386.6" y="235.9" width="30.7" height="84.1" fill="#16a085" opacity="0.45" rx="2" stroke="#16a085" stroke-width="1.5"/><text x="367.4" y="281.0" text-anchor="middle" font-size="9" fill="#16a085">1.15</text><text x="401.9" y="231.9" text-anchor="middle" font-size="9" fill="#16a085">2.76</text><text x="384.7" y="334" text-anchor="middle" font-size="10" fill="#16a085" font-weight="600" font-family="ui-monospace,Menlo,monospace">Slc6a3</text><text x="384.7" y="347" text-anchor="middle" font-size="10" fill="#16a085" font-weight="600" font-family="ui-monospace,Menlo,monospace">(DAT)</text><rect x="447.9" y="320.0" width="30.7" height="0.0" fill="#8e44ad" opacity="0.9" rx="2"/><rect x="482.4" y="320.0" width="30.7" height="0.0" fill="#8e44ad" opacity="0.45" rx="2" stroke="#8e44ad" stroke-width="1.5"/><text x="480.5" y="334" text-anchor="middle" font-size="10" fill="#8e44ad" font-weight="600" font-family="ui-monospace,Menlo,monospace">Snca</text><text x="480.5" y="347" text-anchor="middle" font-size="10" fill="#8e44ad" font-weight="600" font-family="ui-monospace,Menlo,monospace">(α-syn)</text><rect x="543.8" y="176.4" width="30.7" height="143.6" fill="#27ae60" opacity="0.9" rx="2"/><rect x="578.2" y="123.9" width="30.7" height="196.1" fill="#27ae60" opacity="0.45" rx="2" stroke="#27ae60" stroke-width="1.5"/><text x="559.1" y="172.4" text-anchor="middle" font-size="9" fill="#27ae60">4.71</text><text x="593.6" y="119.9" text-anchor="middle" font-size="9" fill="#27ae60">6.43</text><text x="576.3" y="334" text-anchor="middle" font-size="10" fill="#27ae60" font-weight="600" font-family="ui-monospace,Menlo,monospace">Slc17a6</text><text x="576.3" y="347" text-anchor="middle" font-size="10" fill="#27ae60" font-weight="600" font-family="ui-monospace,Menlo,monospace">(VGLUT2)</text><text x="576.3" y="101.9" text-anchor="middle" font-size="9" fill="#27ae60" font-style="italic">VTA &gt; SN:</text><text x="576.3" y="113.9" text-anchor="middle" font-size="9" fill="#27ae60" font-style="italic">corelease</text>
  <text transform="rotate(-90)" x="-200" y="14" text-anchor="middle"
        font-size="10.5" fill="#444">ISH expression energy</text>
</svg>