<svg viewBox="0 0 670 486" xmlns="http://www.w3.org/2000/svg"
     style="font-family:-apple-system,system-ui,sans-serif;background:white;">
  <text x="335" y="22" text-anchor="middle" font-size="13" font-weight="600" fill="#222">
    Presynaptic and PD-Relevant Gene Expression Across Brain Regions
  </text>
  <text x="335" y="38" text-anchor="middle" font-size="10" fill="#666">
    Allen Mouse Brain Atlas · ISH expression energy (row-normalized per gene)
  </text>
  <text x="335" y="53" text-anchor="middle" font-size="10" fill="#c05000">
    ▶ Substantia nigra and VTA highlighted — primary sites of PD-relevant dopamine neuron pathology
  </text>
  <rect x="88" y="52" width="64" height="338" fill="#fff8f0" rx="0" opacity="0.7"/><rect x="152" y="52" width="64" height="338" fill="#fff8f0" rx="0" opacity="0.7"/>
  <defs><linearGradient id="cb1" x1="0" y1="1" x2="0" y2="0"><stop offset="0%" stop-color="rgb(220,235,255)"/><stop offset="50%" stop-color="rgb(255,255,255)"/><stop offset="100%" stop-color="rgb(255,70,70)"/></linearGradient></defs><rect x="610" y="100" width="13" height="286" fill="url(#cb1)" stroke="#ccc" stroke-width="0.5"/><text x="616" y="96" text-anchor="middle" font-size="8" fill="#555">high</text><text x="616" y="396" text-anchor="middle" font-size="8" fill="#555">low</text>
  <text x="120" y="77" text-anchor="middle" font-size="9.5" fill="#c05000" font-weight="bold">Subst.</text><text x="120" y="90" text-anchor="middle" font-size="9.5" fill="#c05000" font-weight="bold">nigra</text><text x="184" y="90" text-anchor="middle" font-size="9.5" fill="#c05000" font-weight="bold">VTA</text><text x="248" y="77" text-anchor="middle" font-size="9.5" fill="#444" font-weight="normal">Caudate-</text><text x="248" y="90" text-anchor="middle" font-size="9.5" fill="#444" font-weight="normal">putamen</text><text x="312" y="77" text-anchor="middle" font-size="9.5" fill="#444" font-weight="normal">Nucleus</text><text x="312" y="90" text-anchor="middle" font-size="9.5" fill="#444" font-weight="normal">accumbens</text><text x="376" y="90" text-anchor="middle" font-size="9.5" fill="#444" font-weight="normal">Isocortex</text><text x="440" y="90" text-anchor="middle" font-size="9.5" fill="#444" font-weight="normal">Hippocampus</text><text x="504" y="77" text-anchor="middle" font-size="9.5" fill="#444" font-weight="normal">Locus</text><text x="504" y="90" text-anchor="middle" font-size="9.5" fill="#444" font-weight="normal">coer.</text><text x="568" y="77" text-anchor="middle" font-size="9.5" fill="#444" font-weight="normal">Dorsal</text><text x="568" y="90" text-anchor="middle" font-size="9.5" fill="#444" font-weight="normal">raphe</text>
  <rect x="88" y="100" width="64" height="26" fill="rgb(220,235,255)" stroke="white" stroke-width="1.5"/><rect x="152" y="100" width="64" height="26" fill="rgb(220,235,255)" stroke="white" stroke-width="1.5"/><rect x="216" y="100" width="64" height="26" fill="rgb(220,235,255)" stroke="white" stroke-width="1.5"/><rect x="280" y="100" width="64" height="26" fill="rgb(220,235,255)" stroke="white" stroke-width="1.5"/><rect x="344" y="100" width="64" height="26" fill="rgb(255,70,70)" stroke="white" stroke-width="1.5"/><text x="376" y="117" text-anchor="middle" font-size="8" fill="white">0.08</text><rect x="408" y="100" width="64" height="26" fill="rgb(220,235,255)" stroke="white" stroke-width="1.5"/><rect x="472" y="100" width="64" height="26" fill="rgb(220,235,255)" stroke="white" stroke-width="1.5"/><rect x="536" y="100" width="64" height="26" fill="rgb(220,235,255)" stroke="white" stroke-width="1.5"/><rect x="88" y="126" width="64" height="26" fill="rgb(255,141,141)" stroke="white" stroke-width="1.5"/><text x="120" y="143" text-anchor="middle" font-size="8" fill="#333">7.03</text><rect x="152" y="126" width="64" height="26" fill="rgb(244,248,255)" stroke="white" stroke-width="1.5"/><text x="184" y="143" text-anchor="middle" font-size="8" fill="#333">2.99</text><rect x="216" y="126" width="64" height="26" fill="rgb(220,235,255)" stroke="white" stroke-width="1.5"/><rect x="280" y="126" width="64" height="26" fill="rgb(220,235,255)" stroke="white" stroke-width="1.5"/><rect x="344" y="126" width="64" height="26" fill="rgb(220,235,255)" stroke="white" stroke-width="1.5"/><rect x="408" y="126" width="64" height="26" fill="rgb(220,235,255)" stroke="white" stroke-width="1.5"/><rect x="472" y="126" width="64" height="26" fill="rgb(220,235,255)" stroke="white" stroke-width="1.5"/><rect x="536" y="126" width="64" height="26" fill="rgb(255,70,70)" stroke="white" stroke-width="1.5"/><text x="568" y="143" text-anchor="middle" font-size="8" fill="white">8.72</text><rect x="88" y="152" width="64" height="26" fill="rgb(255,70,70)" stroke="white" stroke-width="1.5"/><text x="120" y="169" text-anchor="middle" font-size="8" fill="white">2.32</text><rect x="152" y="152" width="64" height="26" fill="rgb(241,247,255)" stroke="white" stroke-width="1.5"/><rect x="216" y="152" width="64" height="26" fill="rgb(230,240,255)" stroke="white" stroke-width="1.5"/><rect x="280" y="152" width="64" height="26" fill="rgb(247,250,255)" stroke="white" stroke-width="1.5"/><rect x="344" y="152" width="64" height="26" fill="rgb(225,237,255)" stroke="white" stroke-width="1.5"/><rect x="408" y="152" width="64" height="26" fill="rgb(226,238,255)" stroke="white" stroke-width="1.5"/><rect x="472" y="152" width="64" height="26" fill="rgb(220,235,255)" stroke="white" stroke-width="1.5"/><rect x="536" y="152" width="64" height="26" fill="rgb(251,253,255)" stroke="white" stroke-width="1.5"/><text x="568" y="169" text-anchor="middle" font-size="8" fill="#333">1.06</text><rect x="88" y="178" width="64" height="26" fill="rgb(255,70,70)" stroke="white" stroke-width="1.5"/><text x="120" y="195" text-anchor="middle" font-size="8" fill="white">0.06</text><rect x="152" y="178" width="64" height="26" fill="rgb(255,190,190)" stroke="white" stroke-width="1.5"/><rect x="216" y="178" width="64" height="26" fill="rgb(233,242,255)" stroke="white" stroke-width="1.5"/><rect x="280" y="178" width="64" height="26" fill="rgb(240,246,255)" stroke="white" stroke-width="1.5"/><rect x="344" y="178" width="64" height="26" fill="rgb(255,75,75)" stroke="white" stroke-width="1.5"/><text x="376" y="195" text-anchor="middle" font-size="8" fill="white">0.06</text><rect x="408" y="178" width="64" height="26" fill="rgb(255,91,91)" stroke="white" stroke-width="1.5"/><text x="440" y="195" text-anchor="middle" font-size="8" fill="white">0.05</text><rect x="472" y="178" width="64" height="26" fill="rgb(220,235,255)" stroke="white" stroke-width="1.5"/><rect x="536" y="178" width="64" height="26" fill="rgb(242,247,255)" stroke="white" stroke-width="1.5"/><rect x="88" y="204" width="64" height="26" fill="rgb(249,251,255)" stroke="white" stroke-width="1.5"/><text x="120" y="221" text-anchor="middle" font-size="8" fill="#333">1.15</text><rect x="152" y="204" width="64" height="26" fill="rgb(255,70,70)" stroke="white" stroke-width="1.5"/><text x="184" y="221" text-anchor="middle" font-size="8" fill="white">2.76</text><rect x="216" y="204" width="64" height="26" fill="rgb(221,236,255)" stroke="white" stroke-width="1.5"/><rect x="280" y="204" width="64" height="26" fill="rgb(221,235,255)" stroke="white" stroke-width="1.5"/><rect x="344" y="204" width="64" height="26" fill="rgb(222,236,255)" stroke="white" stroke-width="1.5"/><rect x="408" y="204" width="64" height="26" fill="rgb(223,236,255)" stroke="white" stroke-width="1.5"/><rect x="472" y="204" width="64" height="26" fill="rgb(220,235,255)" stroke="white" stroke-width="1.5"/><rect x="536" y="204" width="64" height="26" fill="rgb(224,237,255)" stroke="white" stroke-width="1.5"/><rect x="88" y="230" width="64" height="26" fill="rgb(255,168,168)" stroke="white" stroke-width="1.5"/><text x="120" y="247" text-anchor="middle" font-size="8" fill="#333">4.71</text><rect x="152" y="230" width="64" height="26" fill="rgb(255,70,70)" stroke="white" stroke-width="1.5"/><text x="184" y="247" text-anchor="middle" font-size="8" fill="white">6.43</text><rect x="216" y="230" width="64" height="26" fill="rgb(220,235,255)" stroke="white" stroke-width="1.5"/><rect x="280" y="230" width="64" height="26" fill="rgb(222,236,255)" stroke="white" stroke-width="1.5"/><rect x="344" y="230" width="64" height="26" fill="rgb(226,238,255)" stroke="white" stroke-width="1.5"/><rect x="408" y="230" width="64" height="26" fill="rgb(231,241,255)" stroke="white" stroke-width="1.5"/><text x="440" y="247" text-anchor="middle" font-size="8" fill="#333">1.10</text><rect x="472" y="230" width="64" height="26" fill="rgb(220,235,255)" stroke="white" stroke-width="1.5"/><rect x="536" y="230" width="64" height="26" fill="rgb(255,236,236)" stroke="white" stroke-width="1.5"/><text x="568" y="247" text-anchor="middle" font-size="8" fill="#333">3.53</text><rect x="88" y="256" width="64" height="26" fill="rgb(220,235,255)" stroke="white" stroke-width="1.5"/><rect x="152" y="256" width="64" height="26" fill="rgb(222,236,255)" stroke="white" stroke-width="1.5"/><text x="184" y="273" text-anchor="middle" font-size="8" fill="#333">1.26</text><rect x="216" y="256" width="64" height="26" fill="rgb(229,240,255)" stroke="white" stroke-width="1.5"/><text x="248" y="273" text-anchor="middle" font-size="8" fill="#333">4.21</text><rect x="280" y="256" width="64" height="26" fill="rgb(254,254,255)" stroke="white" stroke-width="1.5"/><text x="312" y="273" text-anchor="middle" font-size="8" fill="#333">14.85</text><rect x="344" y="256" width="64" height="26" fill="rgb(255,70,70)" stroke="white" stroke-width="1.5"/><text x="376" y="273" text-anchor="middle" font-size="8" fill="white">30.52</text><rect x="408" y="256" width="64" height="26" fill="rgb(255,120,120)" stroke="white" stroke-width="1.5"/><text x="440" y="273" text-anchor="middle" font-size="8" fill="#333">26.33</text><rect x="472" y="256" width="64" height="26" fill="rgb(220,235,255)" stroke="white" stroke-width="1.5"/><rect x="536" y="256" width="64" height="26" fill="rgb(220,235,255)" stroke="white" stroke-width="1.5"/><rect x="88" y="282" width="64" height="26" fill="rgb(255,209,209)" stroke="white" stroke-width="1.5"/><text x="120" y="299" text-anchor="middle" font-size="8" fill="#333">17.56</text><rect x="152" y="282" width="64" height="26" fill="rgb(255,162,162)" stroke="white" stroke-width="1.5"/><text x="184" y="299" text-anchor="middle" font-size="8" fill="#333">21.16</text><rect x="216" y="282" width="64" height="26" fill="rgb(248,251,255)" stroke="white" stroke-width="1.5"/><text x="248" y="299" text-anchor="middle" font-size="8" fill="#333">11.40</text><rect x="280" y="282" width="64" height="26" fill="rgb(255,234,234)" stroke="white" stroke-width="1.5"/><text x="312" y="299" text-anchor="middle" font-size="8" fill="#333">15.64</text><rect x="344" y="282" width="64" height="26" fill="rgb(255,77,77)" stroke="white" stroke-width="1.5"/><text x="376" y="299" text-anchor="middle" font-size="8" fill="white">27.62</text><rect x="408" y="282" width="64" height="26" fill="rgb(255,128,128)" stroke="white" stroke-width="1.5"/><text x="440" y="299" text-anchor="middle" font-size="8" fill="#333">23.72</text><rect x="472" y="282" width="64" height="26" fill="rgb(220,235,255)" stroke="white" stroke-width="1.5"/><rect x="536" y="282" width="64" height="26" fill="rgb(255,70,70)" stroke="white" stroke-width="1.5"/><text x="568" y="299" text-anchor="middle" font-size="8" fill="white">28.22</text><rect x="88" y="308" width="64" height="26" fill="rgb(255,70,70)" stroke="white" stroke-width="1.5"/><text x="120" y="325" text-anchor="middle" font-size="8" fill="white">14.28</text><rect x="152" y="308" width="64" height="26" fill="rgb(255,172,172)" stroke="white" stroke-width="1.5"/><text x="184" y="325" text-anchor="middle" font-size="8" fill="#333">10.34</text><rect x="216" y="308" width="64" height="26" fill="rgb(227,239,255)" stroke="white" stroke-width="1.5"/><text x="248" y="325" text-anchor="middle" font-size="8" fill="#333">1.50</text><rect x="280" y="308" width="64" height="26" fill="rgb(224,237,255)" stroke="white" stroke-width="1.5"/><text x="312" y="325" text-anchor="middle" font-size="8" fill="#333">1.02</text><rect x="344" y="308" width="64" height="26" fill="rgb(238,245,255)" stroke="white" stroke-width="1.5"/><text x="376" y="325" text-anchor="middle" font-size="8" fill="#333">3.72</text><rect x="408" y="308" width="64" height="26" fill="rgb(245,249,255)" stroke="white" stroke-width="1.5"/><text x="440" y="325" text-anchor="middle" font-size="8" fill="#333">5.26</text><rect x="472" y="308" width="64" height="26" fill="rgb(220,235,255)" stroke="white" stroke-width="1.5"/><rect x="536" y="308" width="64" height="26" fill="rgb(220,235,255)" stroke="white" stroke-width="1.5"/><rect x="88" y="334" width="64" height="26" fill="rgb(248,251,255)" stroke="white" stroke-width="1.5"/><text x="120" y="351" text-anchor="middle" font-size="8" fill="#333">1.20</text><rect x="152" y="334" width="64" height="26" fill="rgb(244,248,255)" stroke="white" stroke-width="1.5"/><text x="184" y="351" text-anchor="middle" font-size="8" fill="#333">1.01</text><rect x="216" y="334" width="64" height="26" fill="rgb(223,237,255)" stroke="white" stroke-width="1.5"/><rect x="280" y="334" width="64" height="26" fill="rgb(228,240,255)" stroke="white" stroke-width="1.5"/><rect x="344" y="334" width="64" height="26" fill="rgb(255,249,249)" stroke="white" stroke-width="1.5"/><text x="376" y="351" text-anchor="middle" font-size="8" fill="#333">1.51</text><rect x="408" y="334" width="64" height="26" fill="rgb(236,244,255)" stroke="white" stroke-width="1.5"/><rect x="472" y="334" width="64" height="26" fill="rgb(220,235,255)" stroke="white" stroke-width="1.5"/><rect x="536" y="334" width="64" height="26" fill="rgb(255,70,70)" stroke="white" stroke-width="1.5"/><text x="568" y="351" text-anchor="middle" font-size="8" fill="white">2.94</text><rect x="88" y="360" width="64" height="26" fill="rgb(255,146,146)" stroke="white" stroke-width="1.5"/><text x="120" y="377" text-anchor="middle" font-size="8" fill="#333">17.83</text><rect x="152" y="360" width="64" height="26" fill="rgb(255,149,149)" stroke="white" stroke-width="1.5"/><text x="184" y="377" text-anchor="middle" font-size="8" fill="#333">17.64</text><rect x="216" y="360" width="64" height="26" fill="rgb(255,161,161)" stroke="white" stroke-width="1.5"/><text x="248" y="377" text-anchor="middle" font-size="8" fill="#333">16.87</text><rect x="280" y="360" width="64" height="26" fill="rgb(255,135,135)" stroke="white" stroke-width="1.5"/><text x="312" y="377" text-anchor="middle" font-size="8" fill="#333">18.45</text><rect x="344" y="360" width="64" height="26" fill="rgb(255,70,70)" stroke="white" stroke-width="1.5"/><text x="376" y="377" text-anchor="middle" font-size="8" fill="white">22.45</text><rect x="408" y="360" width="64" height="26" fill="rgb(255,96,96)" stroke="white" stroke-width="1.5"/><text x="440" y="377" text-anchor="middle" font-size="8" fill="white">20.85</text><rect x="472" y="360" width="64" height="26" fill="rgb(220,235,255)" stroke="white" stroke-width="1.5"/><rect x="536" y="360" width="64" height="26" fill="rgb(255,131,131)" stroke="white" stroke-width="1.5"/><text x="568" y="377" text-anchor="middle" font-size="8" fill="#333">18.74</text>
  <line x1="88" y1="230" x2="600" y2="230" stroke="#ccc" stroke-width="1.5"/><line x1="88" y1="282" x2="600" y2="282" stroke="#ccc" stroke-width="1.5"/><line x1="88" y1="334" x2="600" y2="334" stroke="#ccc" stroke-width="1.5"/><line x1="88" y1="386" x2="600" y2="386" stroke="#ccc" stroke-width="1.5"/>
  <text x="4" y="169" font-size="9" fill="#c0392b" font-weight="600" writing-mode="horizontal-tb">core PD / presynaptic</text><text x="83" y="117" text-anchor="end" font-size="10.5" fill="#c0392b" font-weight="600" font-family="ui-monospace,Menlo,monospace">Snca</text><text x="83" y="143" text-anchor="end" font-size="10.5" fill="#c0392b" font-weight="600" font-family="ui-monospace,Menlo,monospace">Slc18a2</text><text x="83" y="169" text-anchor="end" font-size="10.5" fill="#c0392b" font-weight="600" font-family="ui-monospace,Menlo,monospace">Th</text><text x="83" y="195" text-anchor="end" font-size="10.5" fill="#c0392b" font-weight="600" font-family="ui-monospace,Menlo,monospace">Gba</text><text x="83" y="221" text-anchor="end" font-size="10.5" fill="#c0392b" font-weight="600" font-family="ui-monospace,Menlo,monospace">Slc6a3</text><text x="4" y="260" font-size="9" fill="#2980b9" font-weight="600" writing-mode="horizontal-tb">corelease</text><text x="83" y="247" text-anchor="end" font-size="10.5" fill="#2980b9" font-weight="600" font-family="ui-monospace,Menlo,monospace">Slc17a6</text><text x="83" y="273" text-anchor="end" font-size="10.5" fill="#2980b9" font-weight="600" font-family="ui-monospace,Menlo,monospace">Slc17a7</text><text x="4" y="312" font-size="9" fill="#8e44ad" font-weight="600" writing-mode="horizontal-tb">synuclein family</text><text x="83" y="299" text-anchor="end" font-size="10.5" fill="#8e44ad" font-weight="600" font-family="ui-monospace,Menlo,monospace">Sncb</text><text x="83" y="325" text-anchor="end" font-size="10.5" fill="#8e44ad" font-weight="600" font-family="ui-monospace,Menlo,monospace">Sncg</text><text x="4" y="364" font-size="9" fill="#27ae60" font-weight="600" writing-mode="horizontal-tb">dense-core / peptide</text><text x="83" y="351" text-anchor="end" font-size="10.5" fill="#27ae60" font-weight="600" font-family="ui-monospace,Menlo,monospace">Pcsk1</text><text x="83" y="377" text-anchor="end" font-size="10.5" fill="#27ae60" font-weight="600" font-family="ui-monospace,Menlo,monospace">Cpe</text>
</svg>